# xmcd
#
# Track frame offsets: 
#        150
#        28339
#        38270
#        54547
#        71892
#        89620
#        119901
#        131142
#        141622
#        152994
#        168245
#        181774
#        193767
#        205115
#        219188
#        228647
#        240544
#        251569
#        266632
#        277136
#
# Disc length: 3853 seconds
#
# Revision: 1
# Processed by: cddbd v1.5.2PL0 Copyright (c) Steve Scherf et al.
# Submitted via: ExactAudioCopy v1.0b3
#
DISCID=3b0f0b14
DTITLE=Dinah Washington - 100 Hits Legends [CD 2)
DYEAR=2011
DGENRE=Blues
TTITLE0=I Get A Kick Out of You
TTITLE1=Love for Sale
TTITLE2=After You've Gone
TTITLE3=More Than You Know
TTITLE4=Birth of the Blues
TTITLE5=What Is This Thing Called Love?
TTITLE6=Let's Do It
TTITLE7=I've Got A Feeling I'm Falling
TTITLE8=Keepin' Out of Mischief Now
TTITLE9=Again
TTITLE10=Stairway to the Stars
TTITLE11=Everybody Loves My Baby
TTITLE12=Half as Much
TTITLE13=My Devotion
TTITLE14=If I Were A Bell
TTITLE15=Caravan
TTITLE16=Makin' Whoopee
TTITLE17=Cold, Cold Heart
TTITLE18=It Could Happen to You
TTITLE19=Honeysuckle Rose
EXTD=
EXTT0=
EXTT1=
EXTT2=
EXTT3=
EXTT4=
EXTT5=
EXTT6=
EXTT7=
EXTT8=
EXTT9=
EXTT10=
EXTT11=
EXTT12=
EXTT13=
EXTT14=
EXTT15=
EXTT16=
EXTT17=
EXTT18=
EXTT19=
PLAYORDER=
